<svg height="512" viewBox="0 0 64 64" width="512" xmlns="http://www.w3.org/2000/svg"><g id="Business-Connection"><circle cx="55" cy="38" fill="#787680" r="2"/><path d="m40 16a2.977 2.977 0 0 1 -2.72 2.98c-.68-.45-9.88-.45-10.56 0a3 3 0 0 1 -1.17-5.61 1.944 1.944 0 0 1 -.55-1.37 1.979 1.979 0 0 1 .82-1.61 2.659 2.659 0 0 0 1.18-2.13v-.26a4.99 4.99 0 0 1 4.82-5 5.182 5.182 0 0 1 5.18 5.24v.03a2.67 2.67 0 0 0 1.19 2.13 1.979 1.979 0 0 1 .81 1.6 1.944 1.944 0 0 1 -.55 1.37 2.992 2.992 0 0 1 1.55 2.63z" fill="#57565c"/><path d="m49 61h-4v-2a5.984 5.984 0 0 1 2.72-5.02 5.715 5.715 0 0 1 2.29-.89h5.98a5.715 5.715 0 0 1 2.29.89 5.984 5.984 0 0 1 2.72 5.02v2z" fill="#a25bcd"/><path d="m61 42v8a4 4 0 0 1 -4-4v-3a4.025 4.025 0 0 0 -1.17-2.83 3.329 3.329 0 0 0 -.28-.25 2 2 0 0 0 1.45-1.92 3.995 3.995 0 0 1 4 4z" fill="#3e3d42"/><path d="m57 43v2h-.17a2.006 2.006 0 0 1 -1.42-.59l-1.41-1.41-.83.83a4 4 0 0 1 -2.83 1.17h-1.34v-2a4 4 0 0 1 4-4 2.62 2.62 0 0 1 .28.01 3.985 3.985 0 0 1 2.27.91 3.329 3.329 0 0 1 .28.25 4.025 4.025 0 0 1 1.17 2.83z" fill="#57565c"/><path d="m55.99 53.09c-.07 1.06-1.38 1.91-2.99 1.91s-2.92-.85-2.99-1.91l.16-.03a2.955 2.955 0 0 0 .79-1.62 2.119 2.119 0 0 0 .04-.44 2.76 2.76 0 0 0 -.06-.57h4.12a2.76 2.76 0 0 0 -.06.57 2.119 2.119 0 0 0 .04.44 2.955 2.955 0 0 0 .79 1.62z" fill="#ffc477"/><path d="m36 28h-12v-4a5.984 5.984 0 0 1 2.72-5.02 5.715 5.715 0 0 1 2.29-.89h5.98a5.715 5.715 0 0 1 2.29.89 5.984 5.984 0 0 1 2.72 5.02v4z" fill="#ed539d"/><path d="m36.1 40.65a1.988 1.988 0 0 1 -.25 2.5l-3.85 3.85-3.85-3.85a1.978 1.978 0 0 1 1.4-3.38 1.94 1.94 0 0 1 1.1.33l1.35.9 1.35-.9a1.983 1.983 0 0 1 2.75.55z" fill="#ed1c24"/><path d="m34.99 18.09c-.07 1.06-1.38 1.91-2.99 1.91s-2.92-.85-2.99-1.91l.16-.03a2.955 2.955 0 0 0 .79-1.62 2.119 2.119 0 0 0 .04-.44 2.76 2.76 0 0 0 -.06-.57h4.12a2.76 2.76 0 0 0 -.06.57 2.119 2.119 0 0 0 .04.44 2.955 2.955 0 0 0 .79 1.62z" fill="#ffc477"/><path d="m15 61h-12v-6.53a4.02 4.02 0 0 1 2.21-3.58l3.79-1.89h4l3.79 1.89a4.02 4.02 0 0 1 2.21 3.58v6.53z" fill="#3d9ae2"/><path d="m16 39v1l-1 2-3-2-2 2h-3l-1-1v-2l-1-2h9a2.006 2.006 0 0 1 2 2z" fill="#57565c"/><path d="m15 42v2a4 4 0 0 1 -8 0v-2h3l2-2z" fill="#ffc477"/><path d="m13 47v2a2 2 0 0 1 -4 0v-2z" fill="#ffc477"/><path d="m13 47.46v1a3.974 3.974 0 0 1 -4 0v-1a3.974 3.974 0 0 0 4 0z" fill="#ffb655"/><path d="m34 16a2.119 2.119 0 0 0 .04.44 4 4 0 0 1 -4.08 0 2.119 2.119 0 0 0 .04-.44 2.76 2.76 0 0 0 -.06-.57h4.12a2.76 2.76 0 0 0 -.06.57z" fill="#ffb655"/><path d="m35.83 10a2.006 2.006 0 0 1 -1.42-.59l-1.41-1.41-.83.83a4 4 0 0 1 -2.83 1.17h-1.34v2a4 4 0 0 0 8 0v-2z" fill="#ffc477"/><path d="m55 51a2.119 2.119 0 0 0 .04.44 4 4 0 0 1 -4.08 0 2.119 2.119 0 0 0 .04-.44 2.76 2.76 0 0 0 -.06-.57h4.12a2.76 2.76 0 0 0 -.06.57z" fill="#ffb655"/><path d="m56.83 45a2.006 2.006 0 0 1 -1.42-.59l-1.41-1.41-.83.83a4 4 0 0 1 -2.83 1.17h-1.34v2a4 4 0 0 0 8 0v-2z" fill="#ffc477"/><path d="m27 23h2v5h-2z" fill="#ea348b"/><path d="m35 23h2v5h-2z" fill="#ea348b"/><path d="m6 56h2v5h-2z" fill="#1e81ce"/><path d="m14 56h2v5h-2z" fill="#1e81ce"/><path d="m48 58h2v3h-2z" fill="#933ec5"/><path d="m56 58h2v3h-2z" fill="#933ec5"/><g fill="#ff9811"><path d="m31 31h2v6h-2z"/><path d="m20.964 47.5h7.071v2h-7.071z" transform="matrix(.707 -.707 .707 .707 -27.119 31.529)"/><path d="m38.5 44.964h2v7.071h-2z" transform="matrix(.707 -.707 .707 .707 -22.725 42.136)"/></g></g></svg>