<?xml version="1.0" encoding="utf-8"?>
<!-- Generator: Adobe Illustrator 22.1.0, SVG Export Plug-In . SVG Version: 6.00 Build 0)  -->
<svg version="1.1" id="Lager_1" xmlns="http://www.w3.org/2000/svg" xmlns:xlink="http://www.w3.org/1999/xlink" x="0px" y="0px"
	 viewBox="0 0 934.6 187.1" style="enable-background:new 0 0 934.6 187.1;" xml:space="preserve">
<path d="M253.5,73.5v39.9c0,23.3,19,42.3,42.3,42.3c14.1,0,27.2-7,35.1-18.7l2-2.9l21,21l-1.6,2c-13.7,17.7-34.3,27.8-56.5,27.8
	c-39.4,0-71.5-32.1-71.5-71.5V73.5c0-39.4,32.1-71.5,71.5-71.5c22.6,0,43.4,10.4,57.1,28.5l1.5,2l-21.1,21.1l-2-3
	c-7.9-12.2-21.1-19.4-35.5-19.4C272.5,31.2,253.5,50.2,253.5,73.5z M913.6,134.1l-2,2.9c-7.9,11.7-21,18.7-35.1,18.7
	c-23.3,0-42.3-19-42.3-42.3V73.5l0.2-42.9h42.1v-27H767.7v27H805v82.8c0,39.4,32.1,71.5,71.5,71.5c22.2,0,42.8-10.1,56.5-27.8l1.6-2
	L913.6,134.1z M144,137c-7.9,11.7-21,18.7-35.1,18.7c-23.3,0-42.3-19-42.3-42.3V73.5l0.2-42.9h42.1v-27H0v27h37.4v82.8
	c0,39.4,32.1,71.5,71.5,71.5c22.2,0,42.8-10.1,56.5-27.8l1.6-2l-21-21L144,137z M455.4,80C475.1,60.3,486,34.1,486,6.3l0-2.9
	l-29.4,0l0,2.9c0,20-7.8,38.8-22,52.9c-10.6,10.6-23.7,17.6-38.1,20.4V3.4h-29.4v180.1h29.4v-74.1c8.1-1.1,16-3.2,23.6-6.2
	l51.4,80.3h33.7L445.1,89C448.7,86.2,452.2,83.2,455.4,80z M676.8,108H740V81.2h-63.2V30.6h76.8v-27H647.3v179.7h109v-27h-79.4V108z
	 M584.6,79.5L584.6,79.5c-21.5-8.6-41.7-16.8-41.6-33.6c0.1-5,2.5-9.6,6.8-13.1c4.5-3.5,10.6-5.5,16.9-5.4
	c11.5,0.1,19.8,4.3,25.6,12.8c0.2,0.3,0.6,0.8,1,1.4c1.1,1.4,2.7,3.6,4.1,5.9l1.3,2.3l23.1-20l-1-1.6c-0.9-1.4-1.6-2.6-2-3.2
	C608.5,8.6,591,0.2,567.2,0c-0.2,0-0.4,0-0.7,0c-15.2,0-29.1,4.6-39.2,12.9c-10.3,8.5-16,20.5-16.2,33.8
	c-0.3,28.7,21.6,42.2,40.8,50.7c1.7,0.7,3.3,1.5,4.9,2.2l0.5,0.2c22,9.7,41,18,40.8,34.6c-0.1,7.8-2.8,14.2-8,18.6
	c-5.2,4.4-12.9,6.7-22.1,6.6c-15.7-0.1-28.6-7.2-36.3-19.9l-1.4-2.3L508,158.3l1.2,1.6c12.9,16.8,34.5,27,57.6,27.2
	c0.3,0,0.5,0,0.8,0c37.9,0,63.6-21.5,63.9-53.6C631.9,105,613.1,91.3,584.6,79.5z M209,3.4h-29.5v180H209V3.4z"/>
</svg>
